<svg xmlns="http://www.w3.org/2000/svg" viewBox="0 0 512 512" width="512" height="512" role="img" aria-label="WEIERYANG logo">
  <title>WEIERYANG</title>
  <defs>
    <linearGradient id="gold" x1="0" y1="0" x2="1" y2="1">
      <stop offset="0" stop-color="#f4d08a"/>
      <stop offset="0.28" stop-color="#a76625"/>
      <stop offset="0.55" stop-color="#e3b86a"/>
      <stop offset="1" stop-color="#7f461c"/>
    </linearGradient>
    <linearGradient id="stone" x1="0" y1="0" x2="1" y2="1">
      <stop offset="0" stop-color="#ffffff"/>
      <stop offset="0.45" stop-color="#e8e4d9"/>
      <stop offset="1" stop-color="#b9b2a4"/>
    </linearGradient>
    <filter id="shadow" x="-20%" y="-20%" width="140%" height="140%">
      <feDropShadow dx="0" dy="10" stdDeviation="10" flood-color="#000000" flood-opacity="0.16"/>
    </filter>
  </defs>
  <rect width="512" height="512" fill="transparent"/>
  <g filter="url(#shadow)" stroke-linejoin="round" stroke-linecap="round">
    <path d="M64 110 C102 118 138 188 163 265 C185 333 206 395 242 438 C178 410 139 343 110 255 C86 182 72 132 64 110 Z" fill="url(#stone)" stroke="#d6d0c4" stroke-width="8"/>
    <path d="M448 110 C410 118 374 188 349 265 C327 333 306 395 270 438 C334 410 373 343 402 255 C426 182 440 132 448 110 Z" fill="url(#stone)" stroke="#d6d0c4" stroke-width="8"/>
    <path d="M206 432 C210 326 236 214 317 135 C294 244 278 341 206 432 Z" fill="url(#gold)" stroke="#7b461f" stroke-width="7"/>
    <path d="M264 438 C230 318 265 206 340 142 C324 250 341 345 264 438 Z" fill="url(#gold)" stroke="#7b461f" stroke-width="7"/>
    <path d="M310 410 C344 301 384 190 441 119 C419 228 381 334 310 410 Z" fill="url(#gold)" stroke="#7b461f" stroke-width="7"/>
    <path d="M101 134 C130 199 155 299 205 392" fill="none" stroke="#c8c1b5" stroke-width="5" opacity="0.55"/>
    <path d="M411 134 C382 199 357 299 307 392" fill="none" stroke="#c8c1b5" stroke-width="5" opacity="0.55"/>
    <path d="M235 379 C267 322 291 231 316 158" fill="none" stroke="#f7d590" stroke-width="4" opacity="0.42"/>
    <path d="M286 381 C308 315 315 228 336 158" fill="none" stroke="#f7d590" stroke-width="4" opacity="0.36"/>
  </g>
</svg>
